<svg width="151" height="15" viewBox="0 0 151 15" fill="none" xmlns="http://www.w3.org/2000/svg">
<path d="M9.43575 7.008C10.0944 7.33733 10.5948 7.768 10.9368 8.3C11.2914 8.832 11.4688 9.44633 11.4688 10.143C11.4688 10.9663 11.2344 11.6883 10.7657 12.309C10.2971 12.917 9.63842 13.392 8.78975 13.734C7.94108 14.0633 6.95942 14.228 5.84475 14.228C4.73008 14.228 3.74842 14.0633 2.89975 13.734C2.06375 13.392 1.41142 12.917 0.94275 12.309C0.48675 11.6883 0.25875 10.9663 0.25875 10.143C0.25875 9.44633 0.42975 8.832 0.77175 8.3C1.12642 7.768 1.62675 7.33733 2.27275 7.008C1.77875 6.704 1.39875 6.324 1.13275 5.868C0.86675 5.39933 0.73375 4.86733 0.73375 4.272C0.73375 3.49933 0.949083 2.828 1.37975 2.258C1.81042 1.688 2.41208 1.251 3.18475 0.946999C3.95742 0.630333 4.84408 0.472 5.84475 0.472C6.85808 0.472 7.75108 0.630333 8.52375 0.946999C9.30908 1.251 9.91708 1.688 10.3478 2.258C10.7784 2.828 10.9938 3.49933 10.9938 4.272C10.9938 4.86733 10.8608 5.39933 10.5948 5.868C10.3288 6.324 9.94242 6.704 9.43575 7.008ZM5.84475 2.733C5.22408 2.733 4.72375 2.885 4.34375 3.189C3.97642 3.48033 3.79275 3.88567 3.79275 4.405C3.79275 4.91167 3.97642 5.31067 4.34375 5.602C4.71108 5.89333 5.21142 6.039 5.84475 6.039C6.47808 6.039 6.98475 5.89333 7.36475 5.602C7.74475 5.31067 7.93475 4.91167 7.93475 4.405C7.93475 3.88567 7.74475 3.48033 7.36475 3.189C6.98475 2.885 6.47808 2.733 5.84475 2.733ZM5.84475 11.967C6.61742 11.967 7.22542 11.796 7.66875 11.454C8.12475 11.0993 8.35275 10.6307 8.35275 10.048C8.35275 9.46533 8.12475 9.003 7.66875 8.661C7.22542 8.319 6.61742 8.148 5.84475 8.148C5.08475 8.148 4.48308 8.319 4.03975 8.661C3.59642 9.003 3.37475 9.46533 3.37475 10.048C3.37475 10.6433 3.59642 11.112 4.03975 11.454C4.48308 11.796 5.08475 11.967 5.84475 11.967ZM27.3596 7.008C28.0182 7.33733 28.5186 7.768 28.8606 8.3C29.2152 8.832 29.3926 9.44633 29.3926 10.143C29.3926 10.9663 29.1582 11.6883 28.6896 12.309C28.2209 12.917 27.5622 13.392 26.7136 13.734C25.8649 14.0633 24.8832 14.228 23.7686 14.228C22.6539 14.228 21.6722 14.0633 20.8236 13.734C19.9876 13.392 19.3352 12.917 18.8666 12.309C18.4106 11.6883 18.1826 10.9663 18.1826 10.143C18.1826 9.44633 18.3536 8.832 18.6956 8.3C19.0502 7.768 19.5506 7.33733 20.1966 7.008C19.7026 6.704 19.3226 6.324 19.0566 5.868C18.7906 5.39933 18.6576 4.86733 18.6576 4.272C18.6576 3.49933 18.8729 2.828 19.3036 2.258C19.7342 1.688 20.3359 1.251 21.1086 0.946999C21.8812 0.630333 22.7679 0.472 23.7686 0.472C24.7819 0.472 25.6749 0.630333 26.4476 0.946999C27.2329 1.251 27.8409 1.688 28.2716 2.258C28.7022 2.828 28.9176 3.49933 28.9176 4.272C28.9176 4.86733 28.7846 5.39933 28.5186 5.868C28.2526 6.324 27.8662 6.704 27.3596 7.008ZM23.7686 2.733C23.1479 2.733 22.6476 2.885 22.2676 3.189C21.9002 3.48033 21.7166 3.88567 21.7166 4.405C21.7166 4.91167 21.9002 5.31067 22.2676 5.602C22.6349 5.89333 23.1352 6.039 23.7686 6.039C24.4019 6.039 24.9086 5.89333 25.2886 5.602C25.6686 5.31067 25.8586 4.91167 25.8586 4.405C25.8586 3.88567 25.6686 3.48033 25.2886 3.189C24.9086 2.885 24.4019 2.733 23.7686 2.733ZM23.7686 11.967C24.5412 11.967 25.1492 11.796 25.5926 11.454C26.0486 11.0993 26.2766 10.6307 26.2766 10.048C26.2766 9.46533 26.0486 9.003 25.5926 8.661C25.1492 8.319 24.5412 8.148 23.7686 8.148C23.0086 8.148 22.4069 8.319 21.9636 8.661C21.5202 9.003 21.2986 9.46533 21.2986 10.048C21.2986 10.6433 21.5202 11.112 21.9636 11.454C22.4069 11.796 23.0086 11.967 23.7686 11.967ZM36.5015 14.228C35.3995 14.228 34.4179 13.9557 33.5565 13.411C32.6952 12.8663 32.0175 12.081 31.5235 11.055C31.0422 10.0163 30.8015 8.78133 30.8015 7.35C30.8015 5.91867 31.0422 4.69 31.5235 3.664C32.0175 2.62533 32.6952 1.83367 33.5565 1.289C34.4179 0.744333 35.3995 0.472 36.5015 0.472C37.6035 0.472 38.5852 0.744333 39.4465 1.289C40.3079 1.83367 40.9792 2.62533 41.4605 3.664C41.9545 4.69 42.2015 5.91867 42.2015 7.35C42.2015 8.78133 41.9545 10.0163 41.4605 11.055C40.9792 12.081 40.3079 12.8663 39.4465 13.411C38.5852 13.9557 37.6035 14.228 36.5015 14.228ZM36.5015 11.625C37.3122 11.625 37.9455 11.2767 38.4015 10.58C38.8702 9.88333 39.1045 8.80667 39.1045 7.35C39.1045 5.89333 38.8702 4.81667 38.4015 4.12C37.9455 3.42333 37.3122 3.075 36.5015 3.075C35.7035 3.075 35.0702 3.42333 34.6015 4.12C34.1455 4.81667 33.9175 5.89333 33.9175 7.35C33.9175 8.80667 34.1455 9.88333 34.6015 10.58C35.0702 11.2767 35.7035 11.625 36.5015 11.625ZM49.3971 14.228C48.2951 14.228 47.3134 13.9557 46.4521 13.411C45.5907 12.8663 44.9131 12.081 44.4191 11.055C43.9377 10.0163 43.6971 8.78133 43.6971 7.35C43.6971 5.91867 43.9377 4.69 44.4191 3.664C44.9131 2.62533 45.5907 1.83367 46.4521 1.289C47.3134 0.744333 48.2951 0.472 49.3971 0.472C50.4991 0.472 51.4807 0.744333 52.3421 1.289C53.2034 1.83367 53.8747 2.62533 54.3561 3.664C54.8501 4.69 55.0971 5.91867 55.0971 7.35C55.0971 8.78133 54.8501 10.0163 54.3561 11.055C53.8747 12.081 53.2034 12.8663 52.3421 13.411C51.4807 13.9557 50.4991 14.228 49.3971 14.228ZM49.3971 11.625C50.2077 11.625 50.8411 11.2767 51.2971 10.58C51.7657 9.88333 52.0001 8.80667 52.0001 7.35C52.0001 5.89333 51.7657 4.81667 51.2971 4.12C50.8411 3.42333 50.2077 3.075 49.3971 3.075C48.5991 3.075 47.9657 3.42333 47.4971 4.12C47.0411 4.81667 46.8131 5.89333 46.8131 7.35C46.8131 8.80667 47.0411 9.88333 47.4971 10.58C47.9657 11.2767 48.5991 11.625 49.3971 11.625ZM72.3854 0.699999V2.695L67.4454 14H64.1014L68.8704 3.208H64.4624V5.374H61.7264V0.699999H72.3854ZM83.6926 11.492V14H73.6416V12.005L78.7716 7.16C79.3163 6.64067 79.6836 6.19733 79.8736 5.83C80.0636 5.45 80.1586 5.07633 80.1586 4.709C80.1586 4.177 79.975 3.77167 79.6076 3.493C79.253 3.20167 78.7273 3.056 78.0306 3.056C77.448 3.056 76.9223 3.17 76.4536 3.398C75.985 3.61333 75.5923 3.94267 75.2756 4.386L73.0336 2.942C73.553 2.16933 74.2686 1.56767 75.1806 1.137C76.0926 0.693666 77.1376 0.472 78.3156 0.472C79.3036 0.472 80.165 0.636666 80.8996 0.965999C81.647 1.28267 82.2233 1.73867 82.6286 2.334C83.0466 2.91667 83.2556 3.607 83.2556 4.405C83.2556 5.127 83.1036 5.80467 82.7996 6.438C82.4956 7.07133 81.9066 7.79333 81.0326 8.604L77.9736 11.492H83.6926ZM89.5227 5.697C91.3973 5.697 92.778 6.07067 93.6647 6.818C94.564 7.56533 95.0137 8.566 95.0137 9.82C95.0137 10.6307 94.811 11.3717 94.4057 12.043C94.0003 12.7017 93.3797 13.2337 92.5437 13.639C91.7203 14.0317 90.7007 14.228 89.4847 14.228C88.5473 14.228 87.6227 14.1077 86.7107 13.867C85.8113 13.6137 85.045 13.259 84.4117 12.803L85.6277 10.447C86.1343 10.827 86.717 11.1247 87.3757 11.34C88.0343 11.5427 88.712 11.644 89.4087 11.644C90.1813 11.644 90.7893 11.492 91.2327 11.188C91.676 10.884 91.8977 10.4597 91.8977 9.915C91.8977 9.345 91.6633 8.91433 91.1947 8.623C90.7387 8.33167 89.9407 8.186 88.8007 8.186H85.3997L86.0837 0.699999H94.1967V3.17H88.6487L88.4397 5.697H89.5227ZM107.856 6.115C109.022 6.305 109.915 6.742 110.535 7.426C111.156 8.09733 111.466 8.93333 111.466 9.934C111.466 10.7067 111.264 11.4223 110.858 12.081C110.453 12.727 109.832 13.2463 108.996 13.639C108.173 14.0317 107.16 14.228 105.956 14.228C105.019 14.228 104.094 14.1077 103.182 13.867C102.283 13.6137 101.517 13.259 100.883 12.803L102.08 10.447C102.587 10.827 103.17 11.1247 103.828 11.34C104.5 11.5427 105.184 11.644 105.88 11.644C106.653 11.644 107.261 11.4983 107.704 11.207C108.148 10.903 108.369 10.4787 108.369 9.934C108.369 8.84467 107.54 8.3 105.88 8.3H104.474V6.267L107.21 3.17H101.548V0.699999H110.858V2.695L107.856 6.115ZM122.732 11.492V14H112.681V12.005L117.811 7.16C118.355 6.64067 118.723 6.19733 118.913 5.83C119.103 5.45 119.198 5.07633 119.198 4.709C119.198 4.177 119.014 3.77167 118.647 3.493C118.292 3.20167 117.766 3.056 117.07 3.056C116.487 3.056 115.961 3.17 115.493 3.398C115.024 3.61333 114.631 3.94267 114.315 4.386L112.073 2.942C112.592 2.16933 113.308 1.56767 114.22 1.137C115.132 0.693666 116.177 0.472 117.355 0.472C118.343 0.472 119.204 0.636666 119.939 0.965999C120.686 1.28267 121.262 1.73867 121.668 2.334C122.086 2.91667 122.295 3.607 122.295 4.405C122.295 5.127 122.143 5.80467 121.839 6.438C121.535 7.07133 120.946 7.79333 120.072 8.604L117.013 11.492H122.732ZM135.596 6.115C136.761 6.305 137.654 6.742 138.275 7.426C138.895 8.09733 139.206 8.93333 139.206 9.934C139.206 10.7067 139.003 11.4223 138.598 12.081C138.192 12.727 137.572 13.2463 136.736 13.639C135.912 14.0317 134.899 14.228 133.696 14.228C132.758 14.228 131.834 14.1077 130.922 13.867C130.022 13.6137 129.256 13.259 128.623 12.803L129.82 10.447C130.326 10.827 130.909 11.1247 131.568 11.34C132.239 11.5427 132.923 11.644 133.62 11.644C134.392 11.644 135 11.4983 135.444 11.207C135.887 10.903 136.109 10.4787 136.109 9.934C136.109 8.84467 135.279 8.3 133.62 8.3H132.214V6.267L134.95 3.17H129.288V0.699999H138.598V2.695L135.596 6.115ZM150.471 11.492V14H140.42V12.005L145.55 7.16C146.095 6.64067 146.462 6.19733 146.652 5.83C146.842 5.45 146.937 5.07633 146.937 4.709C146.937 4.177 146.753 3.77167 146.386 3.493C146.031 3.20167 145.506 3.056 144.809 3.056C144.226 3.056 143.701 3.17 143.232 3.398C142.763 3.61333 142.371 3.94267 142.054 4.386L139.812 2.942C140.331 2.16933 141.047 1.56767 141.959 1.137C142.871 0.693666 143.916 0.472 145.094 0.472C146.082 0.472 146.943 0.636666 147.678 0.965999C148.425 1.28267 149.002 1.73867 149.407 2.334C149.825 2.91667 150.034 3.607 150.034 4.405C150.034 5.127 149.882 5.80467 149.578 6.438C149.274 7.07133 148.685 7.79333 147.811 8.604L144.752 11.492H150.471Z" fill="white"/>
</svg>
